ply
format ascii 1.0
comment VCGLIB generated
element vertex 640
property float x
property float y
property float z
element face 1276
property list uchar int vertex_indices
end_header
0.013 0.00599999 0.21625 
0.0128978 0.02 0.217026 
0.013 0.02 0.21625 
0.0128978 0.00599999 0.215473 
0.0128978 0.02 0.215473 
0.0125981 0.02 0.21475 
0.0125981 0.00599999 0.21475 
0.0121213 0.00599999 0.214128 
0.0121213 0.02 0.214128 
0.0115 0.00599999 0.213652 
0.0107764 0.00599999 0.213352 
0.0115 0.02 0.213652 
0.0107764 0.02 0.213352 
0.00999999 0.02 0.21325 
0.00787867 0.00599999 0.214128 
0.00740192 0.00599999 0.21475 
0.00787867 0.02 0.214128 
0.00710222 0.00599999 0.215473 
0.00699999 0.02 0.21625 
0.00699999 0.00599999 0.21625 
0.00710222 0.02 0.217026 
0.00787867 0.02 0.218371 
0.00787867 0.00599999 0.218371 
0.00849999 0.02 0.218848 
0.00922353 0.00599999 0.219148 
0.00922353 0.02 0.219148 
0.00999999 0.00599999 0.21925 
0.0107764 0.02 0.219148 
0.0115 0.00599999 0.218848 
0.0121213 0.02 0.218371 
0.0125981 0.00599999 0.21775 
0.0128978 0.00599999 0.217026 
0.0121213 0.00599999 0.218371 
0.0107764 0.00599999 0.219148 
0.00999999 0.00599999 0.21325 
0.00922353 0.00599999 0.213352 
0.00849999 0.00599999 0.218848 
0.00849999 0.00599999 0.213652 
0.00740192 0.00599999 0.21775 
0.00710222 0.00599999 0.217026 
0.0128978 0.00599999 0.0547764 
0.0128978 0.00599999 0.0532235 
0.0125981 0.02 0.0524999 
0.0121213 0.02 0.0518786 
0.0115 0.00599999 0.0514019 
0.0107764 0.00599999 0.0511022 
0.0115 0.02 0.0514019 
0.00999999 0.00599999 0.051 
0.00999999 0.02 0.051 
0.00922353 0.00599999 0.0511022 
0.00922353 0.02 0.0511022 
0.00787867 0.00599999 0.0518786 
0.00787867 0.02 0.0518786 
0.00710222 0.00599999 0.0532235 
0.00710222 0.00599999 0.0547764 
0.00740192 0.02 0.0554999 
0.00849999 0.00599999 0.056598 
0.00999999 0.00599999 0.0569999 
0.0107764 0.02 0.0568977 
0.0107764 0.00599999 0.0568977 
0.0115 0.00599999 0.056598 
0.0121213 0.00599999 0.0561213 
0.0115 0.02 0.056598 
0.013 0.00599999 0.0539999 
0.0125981 0.00599999 0.0524999 
0.0125981 0.00599999 0.0554999 
0.0121213 0.00599999 0.0518786 
0.00922353 0.00599999 0.0568977 
0.00849999 0.00599999 0.0514019 
0.00787867 0.00599999 0.0561213 
0.00740192 0.00599999 0.0554999 
0.00740192 0.00599999 0.0524999 
0.00699999 0.00599999 0.0539999 
0.00389481 0.0111 0.27 
0.004 0.00999999 0.26975 
0.00375 0.00999999 0.27 
0.00413629 0.00896472 0.26975 
0.00389481 0.00890001 0.27 
0.00453589 0.00799999 0.26975 
0.00431939 0.00787499 0.27 
0.00587499 0.00631939 0.27 
0.00696472 0.00613629 0.26975 
0.00799999 0.00599999 0.26975 
0.00903527 0.00613629 0.26975 
0.00999999 0.00653589 0.26975 
0.0114641 0.00799999 0.26975 
0.0116806 0.00787499 0.27 
0.0118637 0.00896472 0.26975 
0.0121052 0.00890001 0.27 
0.012 0.00999999 0.26975 
0.01225 0.00999999 0.27 
0.0121052 0.0111 0.27 
0.0114641 0.012 0.26975 
0.0108284 0.0128284 0.26975 
0.00999999 0.0134641 0.26975 
0.00903527 0.0138637 0.26975 
0.00799999 0.014 0.26975 
0.00696472 0.0138637 0.26975 
0.00799999 0.01425 0.27 
0.00690001 0.0141052 0.27 
0.00517157 0.0128284 0.26975 
0.00499479 0.0130052 0.27 
0.00453589 0.012 0.26975 
0.00431939 0.012125 0.27 
0.00413629 0.0110353 0.26975 
0.0378948 0.0111 0.27 
0.03775 0.00999999 0.27 
0.0281392 0.0108412 0.27 
0.0278146 0.011625 0.27 
0.0258411 0.0131392 0.27 
0.0409 0.0141052 0.27 
0.0456806 0.012125 0.27 
0.04625 0.00999999 0.27 
0.0456806 0.00787499 0.27 
0.04975 0.002 0.27 
0.044125 0.00631939 0.27 
0.048 0.00025 0.27 
0.0496903 0.00154707 0.27 
0.0492374 0.000762562 0.27 
0.048875 0.000484455 0.27 
0.0409 0.00589481 0.27 
0.039875 0.00631939 0.27 
0.0389948 0.00699479 0.27 
0.0272981 0.0077019 0.27 
0.0278146 0.00837499 0.27 
0.0378948 0.00890001 0.27 
0.025 0.01325 0.27 
0.0241588 0.0131392 0.27 
0.00909997 0.0141052 0.27 
0.010125 0.0136806 0.27 
0.002 0.01975 0.27 
0.001125 0.0195155 0.27 
0.000762562 0.0192374 0.27 
0.00030963 0.0184529 0.27 
0.00025 0.018 0.27 
0.00587499 0.0136806 0.27 
0.00499479 0.00699479 0.27 
0.00690001 0.00589481 0.27 
0.00025 0.002 0.27 
0.00799999 0.00574999 0.27 
0.00909997 0.00589481 0.27 
0.010125 0.00631939 0.27 
0.0110052 0.00699479 0.27 
0.0221854 0.00837499 0.27 
0.0218607 0.00915883 0.27 
0.000484455 0.001125 0.27 
0.002 0.00025 0.27 
0.0241588 0.00686073 0.27 
0.025 0.00674999 0.27 
0.048875 0.0195155 0.27 
0.0484529 0.0196904 0.27 
0.0116806 0.012125 0.27 
0.0110052 0.0130052 0.27 
0.023375 0.0128146 0.27 
0.00413629 0.0110353 0.24625 
0.00413629 0.00896472 0.24625 
0.00453589 0.00799999 0.24625 
0.00517157 0.00717157 0.24625 
0.00517157 0.00717157 0.26975 
0.00599999 0.00653589 0.26975 
0.00599999 0.00653589 0.24625 
0.00696472 0.00613629 0.24625 
0.00799999 0.00599999 0.24625 
0.00903527 0.00613629 0.24625 
0.0114641 0.00799999 0.24625 
0.0108284 0.00717157 0.26975 
0.0118637 0.00896472 0.24625 
0.012 0.00999999 0.24625 
0.0118637 0.0110353 0.24625 
0.0118637 0.0110353 0.26975 
0.0114641 0.012 0.24625 
0.0108284 0.0128284 0.24625 
0.00903527 0.0138637 0.24625 
0.00799999 0.014 0.24625 
0.00696472 0.0138637 0.24625 
0.00599999 0.0134641 0.26975 
0.0383194 0.00787499 0.27 
0.04 0.00653589 0.26975 
0.042 0.00574999 0.27 
0.044 0.00653589 0.26975 
0.0430999 0.00589481 0.27 
0.0450052 0.00699479 0.27 
0.0458637 0.00896472 0.26975 
0.0461051 0.00890001 0.27 
0.0458637 0.0110353 0.26975 
0.0461051 0.0111 0.27 
0.0454641 0.012 0.26975 
0.0450052 0.0130052 0.27 
0.044125 0.0136806 0.27 
0.042 0.014 0.26975 
0.0430999 0.0141052 0.27 
0.0409647 0.0138637 0.26975 
0.042 0.01425 0.27 
0.039875 0.0136806 0.27 
0.04 0.0134641 0.26975 
0.0391715 0.0128284 0.26975 
0.0389948 0.0130052 0.27 
0.0385359 0.012 0.26975 
0.0381363 0.0110353 0.26975 
0.0383194 0.012125 0.27 
0.038 0.00999999 0.26975 
0.0381363 0.00896472 0.26975 
0.0385359 0.00799999 0.24625 
0.0385359 0.00799999 0.26975 
0.0391715 0.00717157 0.24625 
0.0391715 0.00717157 0.26975 
0.04 0.00653589 0.24625 
0.0409647 0.00613629 0.26975 
0.0430352 0.00613629 0.24625 
0.042 0.00599999 0.26975 
0.0430352 0.00613629 0.26975 
0.0448284 0.00717157 0.24625 
0.0448284 0.00717157 0.26975 
0.0454641 0.00799999 0.26975 
0.0458637 0.00896472 0.24625 
0.046 0.00999999 0.24625 
0.046 0.00999999 0.26975 
0.0454641 0.012 0.24625 
0.0448284 0.0128284 0.24625 
0.0448284 0.0128284 0.26975 
0.0430352 0.0138637 0.24625 
0.044 0.0134641 0.26975 
0.0430352 0.0138637 0.26975 
0.04 0.0134641 0.24625 
0.0391715 0.0128284 0.24625 
0.0385359 0.012 0.24625 
0.0221022 0.0107764 0.26975 
0.022 0.00999999 0.26975 
0.02175 0.00999999 0.27 
0.0221022 0.00922353 0.26975 
0.0224019 0.00849999 0.26975 
0.0228787 0.00787867 0.26975 
0.0227019 0.0077019 0.27 
0.023375 0.00718541 0.27 
0.0235 0.00740192 0.26975 
0.0242235 0.00710222 0.26975 
0.025 0.00699999 0.26975 
0.0258411 0.00686073 0.27 
0.0265 0.00740192 0.26975 
0.026625 0.00718541 0.27 
0.0278978 0.00922353 0.26975 
0.0281392 0.00915883 0.27 
0.02825 0.00999999 0.27 
0.0278978 0.0107764 0.26975 
0.027598 0.0115 0.26975 
0.0271213 0.0121213 0.26975 
0.0265 0.0125981 0.26975 
0.0272981 0.0122981 0.27 
0.026625 0.0128146 0.27 
0.0257764 0.0128978 0.26975 
0.025 0.013 0.26975 
0.0242235 0.0128978 0.26975 
0.0227019 0.0122981 0.27 
0.0221854 0.011625 0.27 
0.0218607 0.0108412 0.27 
0.0224019 0.00849999 0.24625 
0.0228787 0.00787867 0.24625 
0.0235 0.00740192 0.24625 
0.025 0.00699999 0.24625 
0.0257764 0.00710222 0.26975 
0.0265 0.00740192 0.24625 
0.027598 0.00849999 0.24625 
0.0271213 0.00787867 0.26975 
0.027598 0.00849999 0.26975 
0.0278978 0.00922353 0.24625 
0.028 0.00999999 0.24625 
0.028 0.00999999 0.26975 
0.0278978 0.0107764 0.24625 
0.0271213 0.0121213 0.24625 
0.0265 0.0125981 0.24625 
0.0242235 0.0128978 0.24625 
0.0235 0.0125981 0.26975 
0.0228787 0.0121213 0.26975 
0.0228787 0.0121213 0.24625 
0.0224019 0.0115 0.26975 
0.048 0.01975 0.27 
-8.04911e-18 0.018 0.26975 
6.81483e-05 0.0185176 0.26975 
0.000484455 0.018875 0.27 
0.000267949 0.019 0.26975 
0.000585786 0.0194142 0.26975 
0.00148236 0.0199318 0.26975 
0.00154707 0.0196904 0.27 
0.00148236 6.81483e-05 0.26975 
0.00154707 0.00030963 0.27 
0.000999999 0.000267949 0.26975 
0.001125 0.000484455 0.27 
0.000267949 0.000999999 0.26975 
0.000762562 0.000762562 0.27 
0.00030963 0.00154707 0.27 
-5.55111e-19 0.002 0.26975 
0.048 0 0.26975 
0.05 0.002 0.26975 
0.0499318 0.00148236 0.26975 
0.049732 0.000999999 0.26975 
0.0495155 0.001125 0.27 
0.0485176 6.81483e-05 0.26975 
0.0484529 0.00030963 0.27 
0.04975 0.018 0.27 
0.0485176 0.0199318 0.26975 
0.0492374 0.0192374 0.27 
0.0495155 0.018875 0.27 
0.0499318 0.0185176 0.26975 
0.05 0.018 0.26975 
0.0496903 0.0184529 0.27 
0.002 0 0.26975 
0.00148236 6.81483e-05 0.00025 
0.000999999 0.000267949 0.00025 
0.000585786 0.000585786 0.00025 
0.000585786 0.000585786 0.26975 
0.000267949 0.000999999 0.00025 
6.81483e-05 0.00148236 0.26975 
-8.04911e-18 0.018 0.00025 
0.000585786 0.0194142 0.00025 
0.000999999 0.019732 0.00025 
0.000999999 0.019732 0.26975 
0.013 0.02 0.0539999 
0.0125981 0.02 0.21775 
0.0115 0.02 0.218848 
0.00999999 0.02 0.21925 
0.002 0.02 0.26975 
0.00740192 0.02 0.21775 
0.00699999 0.02 0.0539999 
0.00710222 0.02 0.215473 
0.00710222 0.02 0.0547764 
0.00740192 0.02 0.21475 
0.00849999 0.02 0.213652 
0.00787867 0.02 0.0561213 
0.00849999 0.02 0.056598 
0.00922353 0.02 0.213352 
0.00922353 0.02 0.0568977 
0.00999999 0.02 0.0569999 
0.0121213 0.02 0.0561213 
0.0125981 0.02 0.0554999 
0.0128978 0.02 0.0547764 
0.002 0.02 0.00025 
0.00710222 0.02 0.0532235 
0.00740192 0.02 0.0524999 
0.00849999 0.02 0.0514019 
0.0107764 0.02 0.0511022 
0.0128978 0.02 0.0532235 
0.048 0.02 0.00025 
0.004 0.00999999 0.24625 
0.00453589 0.012 0.24625 
0.00517157 0.0128284 0.24625 
0.00599999 0.0134641 0.24625 
0.00999999 0.0134641 0.24625 
0.0108284 0.00717157 0.24625 
0.00999999 0.00653589 0.24625 
0.0221022 0.00922353 0.24625 
0.022 0.00999999 0.24625 
0.0221022 0.0107764 0.24625 
0.0224019 0.0115 0.24625 
0.027598 0.0115 0.24625 
0.0235 0.0125981 0.24625 
0.0257764 0.0128978 0.24625 
0.025 0.013 0.24625 
0.0271213 0.00787867 0.24625 
0.0257764 0.00710222 0.24625 
0.0242235 0.00710222 0.24625 
0.038 0.00999999 0.24625 
0.0381363 0.0110353 0.24625 
0.0458637 0.0110353 0.24625 
0.044 0.0134641 0.24625 
0.0409647 0.0138637 0.24625 
0.042 0.014 0.24625 
0.0454641 0.00799999 0.24625 
0.0381363 0.00896472 0.24625 
0.044 0.00653589 0.24625 
0.0409647 0.00613629 0.24625 
0.042 0.00599999 0.24625 
6.81483e-05 0.0185176 0.00025 
0.000484455 0.018875 0 
0.000267949 0.019 0.00025 
0.001125 0.0195155 0 
0.00148236 0.0199318 0.00025 
0.00154707 0.0196904 0 
-5.55111e-19 0.002 0.00025 
0.002 0 0.00025 
0.000762562 0.000762562 0 
0.00030963 0.00154707 0 
6.81483e-05 0.00148236 0.00025 
0.0496903 0.00154707 0 
0.0499318 0.00148236 0.00025 
0.049732 0.000999999 0.00025 
0.0494142 0.000585786 0.00025 
0.049 0.000267949 0.00025 
0.048 0 0.00025 
0.04975 0.002 0 
0.05 0.002 0.00025 
0.048 0.01975 0 
0.049 0.019732 0.00025 
0.0492374 0.0192374 0 
0.0494142 0.0194142 0.00025 
0.0496903 0.0184529 0 
0.0494142 0.000585786 0.26975 
0.049 0.000267949 0.26975 
0.0485176 6.81483e-05 0.00025 
0.048 0.02 0.26975 
0.0485176 0.0199318 0.00025 
0.049 0.019732 0.26975 
0.0494142 0.0194142 0.26975 
0.049732 0.019 0.00025 
0.049732 0.019 0.26975 
0.0499318 0.0185176 0.00025 
0.05 0.018 0.00025 
0.0281392 0.00915883 0 
0.02825 0.00999999 0 
0.0278146 0.00837499 0 
0.0389948 0.00699479 0 
0.026625 0.00718541 0 
0.0409 0.00589481 0 
0.044125 0.00631939 0 
0.0456806 0.00787499 0 
0.0456806 0.012125 0 
0.044125 0.0136806 0 
0.0430999 0.0141052 0 
0.04975 0.018 0 
0.0495155 0.018875 0 
0.048875 0.0195155 0 
0.0484529 0.0196904 0 
0.0409 0.0141052 0 
0.0258411 0.0131392 0 
0.0378948 0.0111 0 
0.00025 0.018 0 
0.00389481 0.0111 0 
0.00431939 0.012125 0 
0.00499479 0.0130052 0 
0.00799999 0.01425 0 
0.0241588 0.0131392 0 
0.0110052 0.0130052 0 
0.0121052 0.0111 0 
0.0218607 0.00915883 0 
0.00389481 0.00890001 0 
0.00025 0.002 0 
0.00587499 0.00631939 0 
0.00690001 0.00589481 0 
0.002 0.00025 0 
0.00799999 0.00574999 0 
0.00909997 0.00589481 0 
0.010125 0.00631939 0 
0.0227019 0.0077019 0 
0.0121052 0.00890001 0 
0.025 0.01325 0 
0.0495155 0.001125 0 
0.0492374 0.000762562 0 
0.048 0.00025 0 
0.048875 0.000484455 0 
0.0484529 0.00030963 0 
0.00154707 0.00030963 0 
0.001125 0.000484455 0 
0.000484455 0.001125 0 
0.002 0.01975 0 
0.00030963 0.0184529 0 
0.000762562 0.0192374 0 
0.038 0.00999999 0.00025 
0.0378948 0.00890001 0 
0.0381363 0.0110353 0.00025 
0.03775 0.00999999 0 
0.0385359 0.012 0.00025 
0.0383194 0.012125 0 
0.0389948 0.0130052 0 
0.04 0.0134641 0.00025 
0.039875 0.0136806 0 
0.042 0.014 0.00025 
0.042 0.01425 0 
0.0430352 0.0138637 0.00025 
0.0448284 0.0128284 0.00025 
0.0450052 0.0130052 0 
0.0454641 0.012 0.00025 
0.0461051 0.0111 0 
0.04625 0.00999999 0 
0.046 0.00999999 0.00025 
0.0461051 0.00890001 0 
0.0454641 0.00799999 0.00025 
0.0448284 0.00717157 0.00025 
0.0450052 0.00699479 0 
0.0430352 0.00613629 0.00025 
0.0430999 0.00589481 0 
0.042 0.00574999 0 
0.0409647 0.00613629 0.00025 
0.04 0.00653589 0.00025 
0.039875 0.00631939 0 
0.0383194 0.00787499 0 
0.0381363 0.00896472 0.024 
0.0391715 0.0128284 0.024 
0.0391715 0.0128284 0.00025 
0.0409647 0.0138637 0.024 
0.0409647 0.0138637 0.00025 
0.0430352 0.0138637 0.024 
0.044 0.0134641 0.024 
0.044 0.0134641 0.00025 
0.0448284 0.0128284 0.024 
0.0458637 0.0110353 0.00025 
0.0458637 0.0110353 0.024 
0.0458637 0.00896472 0.024 
0.0458637 0.00896472 0.00025 
0.0448284 0.00717157 0.024 
0.0430352 0.00613629 0.024 
0.044 0.00653589 0.00025 
0.042 0.00599999 0.024 
0.0409647 0.00613629 0.024 
0.042 0.00599999 0.00025 
0.0391715 0.00717157 0.00025 
0.0385359 0.00799999 0.00025 
0.0381363 0.00896472 0.00025 
0.02175 0.00999999 0 
0.0218607 0.0108412 0 
0.0221854 0.011625 0 
0.0227019 0.0122981 0 
0.023375 0.0128146 0 
0.025 0.013 0.00025 
0.026625 0.0128146 0 
0.0272981 0.0122981 0 
0.027598 0.0115 0.00025 
0.0278146 0.011625 0 
0.0281392 0.0108412 0 
0.0278978 0.00922353 0.00025 
0.027598 0.00849999 0.00025 
0.0271213 0.00787867 0.00025 
0.0272981 0.0077019 0 
0.0265 0.00740192 0.00025 
0.0258411 0.00686073 0 
0.025 0.00674999 0 
0.0242235 0.00710222 0.00025 
0.0241588 0.00686073 0 
0.0235 0.00740192 0.00025 
0.023375 0.00718541 0 
0.0228787 0.00787867 0.00025 
0.0224019 0.00849999 0.00025 
0.0221854 0.00837499 0 
0.0221022 0.00922353 0.00025 
0.0221022 0.00922353 0.024 
0.022 0.00999999 0.00025 
0.0221022 0.0107764 0.00025 
0.0224019 0.0115 0.00025 
0.0228787 0.0121213 0.024 
0.0228787 0.0121213 0.00025 
0.0235 0.0125981 0.00025 
0.0242235 0.0128978 0.024 
0.025 0.013 0.024 
0.0242235 0.0128978 0.00025 
0.0257764 0.0128978 0.024 
0.0257764 0.0128978 0.00025 
0.0265 0.0125981 0.00025 
0.0271213 0.0121213 0.00025 
0.0278978 0.0107764 0.00025 
0.0278978 0.00922353 0.024 
0.028 0.00999999 0.00025 
0.0271213 0.00787867 0.024 
0.0257764 0.00710222 0.024 
0.0257764 0.00710222 0.00025 
0.025 0.00699999 0.024 
0.025 0.00699999 0.00025 
0.0242235 0.00710222 0.024 
0.0228787 0.00787867 0.024 
0.0224019 0.00849999 0.024 
0.00375 0.00999999 0 
0.00599999 0.0134641 0.00025 
0.00587499 0.0136806 0 
0.00690001 0.0141052 0 
0.00903527 0.0138637 0.00025 
0.00909997 0.0141052 0 
0.010125 0.0136806 0 
0.0116806 0.012125 0 
0.012 0.00999999 0.00025 
0.01225 0.00999999 0 
0.0116806 0.00787499 0 
0.0110052 0.00699479 0 
0.00499479 0.00699479 0 
0.00431939 0.00787499 0 
0.00413629 0.00896472 0.024 
0.004 0.00999999 0.024 
0.004 0.00999999 0.00025 
0.00413629 0.0110353 0.00025 
0.00453589 0.012 0.00025 
0.00517157 0.0128284 0.00025 
0.00517157 0.0128284 0.024 
0.00696472 0.0138637 0.00025 
0.00799999 0.014 0.024 
0.00799999 0.014 0.00025 
0.00999999 0.0134641 0.00025 
0.0108284 0.0128284 0.024 
0.0108284 0.0128284 0.00025 
0.0114641 0.012 0.024 
0.0114641 0.012 0.00025 
0.0118637 0.0110353 0.024 
0.0118637 0.0110353 0.00025 
0.0118637 0.00896472 0.024 
0.0118637 0.00896472 0.00025 
0.0114641 0.00799999 0.024 
0.0114641 0.00799999 0.00025 
0.00999999 0.00653589 0.024 
0.0108284 0.00717157 0.00025 
0.00999999 0.00653589 0.00025 
0.00903527 0.00613629 0.00025 
0.00799999 0.00599999 0.00025 
0.00696472 0.00613629 0.00025 
0.00599999 0.00653589 0.024 
0.00599999 0.00653589 0.00025 
0.00517157 0.00717157 0.024 
0.00517157 0.00717157 0.00025 
0.00453589 0.00799999 0.00025 
0.00413629 0.00896472 0.00025 
0.00413629 0.0110353 0.024 
0.012 0.00999999 0.024 
0.00453589 0.00799999 0.024 
0.0108284 0.00717157 0.024 
0.00696472 0.00613629 0.024 
0.00903527 0.00613629 0.024 
0.00799999 0.00599999 0.024 
0.00453589 0.012 0.024 
0.00999999 0.0134641 0.024 
0.00599999 0.0134641 0.024 
0.00696472 0.0138637 0.024 
0.00903527 0.0138637 0.024 
0.0278978 0.0107764 0.024 
0.022 0.00999999 0.024 
0.028 0.00999999 0.024 
0.027598 0.00849999 0.024 
0.0265 0.00740192 0.024 
0.0235 0.00740192 0.024 
0.027598 0.0115 0.024 
0.0221022 0.0107764 0.024 
0.0224019 0.0115 0.024 
0.0271213 0.0121213 0.024 
0.0265 0.0125981 0.024 
0.0235 0.0125981 0.024 
0.0381363 0.0110353 0.024 
0.038 0.00999999 0.024 
0.046 0.00999999 0.024 
0.0385359 0.00799999 0.024 
0.0454641 0.00799999 0.024 
0.0391715 0.00717157 0.024 
0.04 0.00653589 0.024 
0.044 0.00653589 0.024 
0.0454641 0.012 0.024 
0.0385359 0.012 0.024 
0.04 0.0134641 0.024 
0.042 0.014 0.024 
3 31 1 0 
3 0 1 2 
3 0 2 3 
3 3 2 4 
3 3 4 6 
3 6 4 5 
3 6 5 7 
3 7 5 8 
3 7 8 9 
3 9 8 11 
3 9 11 10 
3 10 11 12 
3 10 12 34 
3 34 12 13 
3 34 13 35 
3 35 13 329 
3 35 329 37 
3 37 329 326 
3 37 326 14 
3 14 326 16 
3 14 16 15 
3 15 16 325 
3 15 325 17 
3 17 325 323 
3 17 323 19 
3 19 323 18 
3 19 18 39 
3 39 18 20 
3 39 20 38 
3 38 20 321 
3 38 321 22 
3 22 321 21 
3 22 21 36 
3 36 21 23 
3 36 23 24 
3 24 23 25 
3 24 25 26 
3 26 25 319 
3 26 319 33 
3 33 319 27 
3 33 27 28 
3 28 27 318 
3 28 318 32 
3 32 318 29 
3 32 29 30 
3 30 29 317 
3 30 317 31 
3 31 317 1 
3 0 3 31 
3 31 3 30 
3 30 3 6 
3 30 6 32 
3 32 6 7 
3 32 7 28 
3 28 7 9 
3 28 9 33 
3 33 9 10 
3 33 10 26 
3 26 10 34 
3 26 34 24 
3 24 34 35 
3 24 35 36 
3 36 35 37 
3 36 37 22 
3 22 37 14 
3 22 14 38 
3 38 14 15 
3 38 15 39 
3 39 15 17 
3 39 17 19 
3 40 334 63 
3 63 334 316 
3 63 316 41 
3 41 316 340 
3 41 340 64 
3 64 340 42 
3 64 42 66 
3 66 42 43 
3 66 43 44 
3 44 43 46 
3 44 46 45 
3 45 46 339 
3 45 339 47 
3 47 339 48 
3 47 48 49 
3 49 48 50 
3 49 50 68 
3 68 50 338 
3 68 338 51 
3 51 338 52 
3 51 52 71 
3 71 52 337 
3 71 337 53 
3 53 337 336 
3 53 336 72 
3 72 336 322 
3 72 322 54 
3 54 322 324 
3 54 324 70 
3 70 324 55 
3 70 55 69 
3 69 55 327 
3 69 327 56 
3 56 327 328 
3 56 328 67 
3 67 328 330 
3 67 330 57 
3 57 330 331 
3 57 331 59 
3 59 331 58 
3 59 58 60 
3 60 58 62 
3 60 62 61 
3 61 62 332 
3 61 332 65 
3 65 332 333 
3 65 333 40 
3 40 333 334 
3 63 41 40 
3 40 41 65 
3 65 41 64 
3 65 64 61 
3 61 64 66 
3 61 66 60 
3 60 66 44 
3 60 44 59 
3 59 44 45 
3 59 45 57 
3 57 45 47 
3 57 47 67 
3 67 47 49 
3 67 49 56 
3 56 49 68 
3 56 68 69 
3 69 68 51 
3 69 51 70 
3 70 51 71 
3 70 71 54 
3 54 71 53 
3 54 53 72 
3 104 73 74 
3 74 73 75 
3 74 75 76 
3 76 75 77 
3 76 77 78 
3 78 77 79 
3 78 79 158 
3 158 79 136 
3 158 136 159 
3 159 136 80 
3 159 80 81 
3 81 80 137 
3 81 137 82 
3 82 137 139 
3 82 139 83 
3 83 139 140 
3 83 140 84 
3 84 140 141 
3 84 141 165 
3 165 141 142 
3 165 142 85 
3 85 142 86 
3 85 86 87 
3 87 86 88 
3 87 88 89 
3 89 88 90 
3 89 90 169 
3 169 90 91 
3 169 91 92 
3 92 91 151 
3 92 151 93 
3 93 151 152 
3 93 152 94 
3 94 152 129 
3 94 129 95 
3 95 129 128 
3 95 128 96 
3 96 128 98 
3 96 98 97 
3 97 98 99 
3 97 99 175 
3 175 99 135 
3 175 135 100 
3 100 135 101 
3 100 101 102 
3 102 101 103 
3 102 103 104 
3 104 103 73 
3 105 107 106 
3 106 107 242 
3 106 242 241 
3 107 105 108 
3 108 105 199 
3 108 199 247 
3 247 199 196 
3 247 196 248 
3 248 196 193 
3 248 193 109 
3 109 193 110 
3 109 110 275 
3 275 110 192 
3 275 192 298 
3 298 192 190 
3 298 190 188 
3 188 187 298 
3 298 187 111 
3 298 111 185 
3 185 112 298 
3 298 112 114 
3 114 112 183 
3 114 183 113 
3 113 181 114 
3 114 181 115 
3 114 115 180 
3 180 178 114 
3 114 178 116 
3 114 116 117 
3 117 116 295 
3 295 116 118 
3 118 116 119 
3 119 116 297 
3 178 120 116 
3 116 120 237 
3 116 237 148 
3 120 121 237 
3 237 121 239 
3 239 121 122 
3 239 122 123 
3 123 122 176 
3 123 176 124 
3 124 176 125 
3 124 125 241 
3 241 125 106 
3 109 275 126 
3 126 275 130 
3 126 130 127 
3 127 130 128 
3 127 128 129 
3 282 131 130 
3 130 131 132 
3 130 132 278 
3 278 133 130 
3 130 133 134 
3 130 134 98 
3 98 134 99 
3 99 134 135 
3 135 134 101 
3 101 134 103 
3 103 134 73 
3 73 134 75 
3 75 134 138 
3 75 138 77 
3 77 138 79 
3 79 138 136 
3 136 138 80 
3 80 138 137 
3 137 138 139 
3 139 138 146 
3 139 146 140 
3 140 146 147 
3 140 147 141 
3 141 147 233 
3 141 233 142 
3 142 233 232 
3 142 232 86 
3 86 232 143 
3 86 143 88 
3 88 143 144 
3 88 144 90 
3 90 144 228 
3 90 228 254 
3 138 289 146 
3 146 289 145 
3 146 145 288 
3 288 286 146 
3 146 286 284 
3 147 146 148 
3 148 146 116 
3 298 304 275 
3 275 304 301 
3 275 301 300 
3 300 149 275 
3 275 149 150 
3 90 254 91 
3 91 254 253 
3 91 253 151 
3 151 253 252 
3 151 252 152 
3 152 252 153 
3 152 153 129 
3 129 153 127 
3 98 128 130 
3 154 104 342 
3 342 104 74 
3 342 74 155 
3 155 74 76 
3 155 76 156 
3 156 76 78 
3 156 78 157 
3 157 78 158 
3 157 158 160 
3 160 158 159 
3 160 159 161 
3 161 159 81 
3 161 81 162 
3 162 81 82 
3 162 82 163 
3 163 82 83 
3 163 83 348 
3 348 83 84 
3 348 84 347 
3 347 84 165 
3 347 165 164 
3 164 165 85 
3 164 85 166 
3 166 85 87 
3 166 87 167 
3 167 87 89 
3 167 89 168 
3 168 89 169 
3 168 169 170 
3 170 169 92 
3 170 92 171 
3 171 92 93 
3 171 93 346 
3 346 93 94 
3 346 94 172 
3 172 94 95 
3 172 95 173 
3 173 95 96 
3 173 96 174 
3 174 96 97 
3 174 97 345 
3 345 97 175 
3 345 175 344 
3 344 175 100 
3 344 100 343 
3 343 100 102 
3 343 102 154 
3 154 102 104 
3 198 105 200 
3 200 105 106 
3 200 106 201 
3 201 106 125 
3 201 125 203 
3 203 125 176 
3 203 176 205 
3 205 176 122 
3 205 122 177 
3 177 122 121 
3 177 121 207 
3 207 121 120 
3 207 120 209 
3 209 120 178 
3 209 178 210 
3 210 178 180 
3 210 180 179 
3 179 180 115 
3 179 115 212 
3 212 115 181 
3 212 181 213 
3 213 181 113 
3 213 113 182 
3 182 113 183 
3 182 183 216 
3 216 183 112 
3 216 112 184 
3 184 112 185 
3 184 185 186 
3 186 185 111 
3 186 111 219 
3 219 111 187 
3 219 187 221 
3 221 187 188 
3 221 188 222 
3 222 188 190 
3 222 190 189 
3 189 190 192 
3 189 192 191 
3 191 192 110 
3 191 110 194 
3 194 110 193 
3 194 193 195 
3 195 193 196 
3 195 196 197 
3 197 196 199 
3 197 199 198 
3 198 199 105 
3 361 198 360 
3 360 198 200 
3 360 200 367 
3 367 200 201 
3 367 201 202 
3 202 201 203 
3 202 203 204 
3 204 203 205 
3 204 205 206 
3 206 205 177 
3 206 177 369 
3 369 177 207 
3 369 207 370 
3 370 207 209 
3 370 209 208 
3 208 209 210 
3 208 210 368 
3 368 210 179 
3 368 179 211 
3 211 179 212 
3 211 212 366 
3 366 212 213 
3 366 213 214 
3 214 213 182 
3 214 182 215 
3 215 182 216 
3 215 216 362 
3 362 216 184 
3 362 184 217 
3 217 184 186 
3 217 186 218 
3 218 186 219 
3 218 219 363 
3 363 219 221 
3 363 221 220 
3 220 221 222 
3 220 222 365 
3 365 222 189 
3 365 189 364 
3 364 189 191 
3 364 191 223 
3 223 191 194 
3 223 194 224 
3 224 194 195 
3 224 195 225 
3 225 195 197 
3 225 197 361 
3 361 197 198 
3 226 254 227 
3 227 254 228 
3 227 228 229 
3 229 228 144 
3 229 144 230 
3 230 144 143 
3 230 143 231 
3 231 143 232 
3 231 232 234 
3 234 232 233 
3 234 233 235 
3 235 233 147 
3 235 147 236 
3 236 147 148 
3 236 148 259 
3 259 148 237 
3 259 237 238 
3 238 237 239 
3 238 239 262 
3 262 239 123 
3 262 123 263 
3 263 123 124 
3 263 124 240 
3 240 124 241 
3 240 241 266 
3 266 241 242 
3 266 242 243 
3 243 242 107 
3 243 107 244 
3 244 107 108 
3 244 108 245 
3 245 108 247 
3 245 247 246 
3 246 247 248 
3 246 248 249 
3 249 248 109 
3 249 109 250 
3 250 109 126 
3 250 126 251 
3 251 126 127 
3 251 127 271 
3 271 127 153 
3 271 153 272 
3 272 153 252 
3 272 252 274 
3 274 252 253 
3 274 253 226 
3 226 253 254 
3 351 226 350 
3 350 226 227 
3 350 227 349 
3 349 227 229 
3 349 229 255 
3 255 229 230 
3 255 230 256 
3 256 230 231 
3 256 231 257 
3 257 231 234 
3 257 234 359 
3 359 234 235 
3 359 235 258 
3 258 235 236 
3 258 236 358 
3 358 236 259 
3 358 259 260 
3 260 259 238 
3 260 238 357 
3 357 238 262 
3 357 262 261 
3 261 262 263 
3 261 263 264 
3 264 263 240 
3 264 240 265 
3 265 240 266 
3 265 266 267 
3 267 266 243 
3 267 243 353 
3 353 243 244 
3 353 244 268 
3 268 244 245 
3 268 245 269 
3 269 245 246 
3 269 246 355 
3 355 246 249 
3 355 249 356 
3 356 249 250 
3 356 250 270 
3 270 250 251 
3 270 251 354 
3 354 251 271 
3 354 271 273 
3 273 271 272 
3 273 272 352 
3 352 272 274 
3 352 274 351 
3 351 274 226 
3 130 275 320 
3 320 275 398 
3 276 134 277 
3 277 134 133 
3 277 133 279 
3 279 133 278 
3 279 278 280 
3 280 278 132 
3 280 132 315 
3 315 132 131 
3 315 131 281 
3 281 131 282 
3 281 282 320 
3 320 282 130 
3 290 138 276 
3 276 138 134 
3 305 146 283 
3 283 146 284 
3 283 284 285 
3 285 284 286 
3 285 286 309 
3 309 286 288 
3 309 288 287 
3 287 288 145 
3 287 145 311 
3 311 145 289 
3 311 289 290 
3 290 289 138 
3 116 146 291 
3 291 146 305 
3 292 114 293 
3 293 114 117 
3 293 117 294 
3 294 117 295 
3 294 295 395 
3 395 295 118 
3 395 118 396 
3 396 118 119 
3 396 119 296 
3 296 119 297 
3 296 297 291 
3 291 297 116 
3 303 298 292 
3 292 298 114 
3 398 275 299 
3 299 275 150 
3 299 150 400 
3 400 150 149 
3 400 149 401 
3 401 149 300 
3 401 300 403 
3 403 300 301 
3 403 301 302 
3 302 301 304 
3 302 304 303 
3 303 304 298 
3 378 305 306 
3 306 305 283 
3 306 283 307 
3 307 283 285 
3 307 285 308 
3 308 285 309 
3 308 309 310 
3 310 309 287 
3 310 287 381 
3 381 287 311 
3 381 311 377 
3 377 311 290 
3 290 276 377 
3 377 276 312 
3 312 276 371 
3 371 276 277 
3 371 277 373 
3 373 277 279 
3 373 279 313 
3 313 279 280 
3 313 280 314 
3 314 280 315 
3 314 315 375 
3 375 315 281 
3 375 281 335 
3 335 281 320 
3 1 398 2 
3 2 398 316 
3 2 316 334 
3 398 1 320 
3 320 1 317 
3 320 317 29 
3 29 318 320 
3 320 318 27 
3 320 27 319 
3 319 25 320 
3 320 25 23 
3 320 23 21 
3 21 321 320 
3 320 321 20 
3 320 20 18 
3 320 18 322 
3 322 18 323 
3 322 323 324 
3 324 323 325 
3 324 325 55 
3 55 325 16 
3 55 16 327 
3 327 16 326 
3 327 326 328 
3 328 326 329 
3 328 329 330 
3 330 329 13 
3 330 13 331 
3 331 13 58 
3 58 13 12 
3 58 12 62 
3 62 12 11 
3 62 11 332 
3 332 11 8 
3 332 8 333 
3 333 8 5 
3 333 5 4 
3 333 4 334 
3 334 4 2 
3 320 322 335 
3 335 322 336 
3 335 336 337 
3 337 52 335 
3 335 52 338 
3 335 338 50 
3 50 48 335 
3 335 48 339 
3 335 339 46 
3 46 43 335 
3 335 43 42 
3 335 42 340 
3 335 340 341 
3 341 340 316 
3 341 316 398 
3 155 166 342 
3 342 166 167 
3 342 167 154 
3 154 167 168 
3 154 168 343 
3 343 168 170 
3 343 170 344 
3 344 170 171 
3 344 171 345 
3 345 171 346 
3 345 346 174 
3 174 346 172 
3 174 172 173 
3 166 155 164 
3 164 155 156 
3 164 156 347 
3 347 156 157 
3 347 157 348 
3 348 157 160 
3 348 160 163 
3 163 160 161 
3 163 161 162 
3 349 264 350 
3 350 264 265 
3 350 265 351 
3 351 265 267 
3 351 267 352 
3 352 267 353 
3 352 353 273 
3 273 353 268 
3 273 268 354 
3 354 268 269 
3 354 269 270 
3 270 269 355 
3 270 355 356 
3 264 349 261 
3 261 349 255 
3 261 255 357 
3 357 255 256 
3 357 256 260 
3 260 256 257 
3 260 257 358 
3 358 257 359 
3 358 359 258 
3 367 214 360 
3 360 214 215 
3 360 215 361 
3 361 215 362 
3 361 362 225 
3 225 362 217 
3 225 217 224 
3 224 217 218 
3 224 218 223 
3 223 218 363 
3 223 363 364 
3 364 363 220 
3 364 220 365 
3 214 367 366 
3 366 367 202 
3 366 202 211 
3 211 202 204 
3 211 204 368 
3 368 204 206 
3 368 206 208 
3 208 206 369 
3 208 369 370 
3 335 341 452 
3 452 341 390 
3 424 312 453 
3 453 312 371 
3 453 371 372 
3 372 371 373 
3 372 373 454 
3 454 373 313 
3 454 313 374 
3 374 313 314 
3 374 314 376 
3 376 314 375 
3 376 375 452 
3 452 375 335 
3 434 377 424 
3 424 377 312 
3 437 378 449 
3 449 378 306 
3 449 306 450 
3 450 306 307 
3 450 307 379 
3 379 307 308 
3 379 308 451 
3 451 308 310 
3 451 310 380 
3 380 310 381 
3 380 381 434 
3 434 381 377 
3 387 378 446 
3 446 378 437 
3 388 389 382 
3 382 389 383 
3 382 383 444 
3 444 383 384 
3 444 384 445 
3 445 384 385 
3 445 385 447 
3 447 385 386 
3 447 386 448 
3 448 386 397 
3 448 397 446 
3 446 397 387 
3 417 405 388 
3 388 405 389 
3 390 341 420 
3 420 341 399 
3 420 399 419 
3 419 399 391 
3 419 391 392 
3 392 391 393 
3 392 393 418 
3 418 393 402 
3 418 402 394 
3 394 402 404 
3 394 404 417 
3 417 404 405 
3 389 292 383 
3 383 292 293 
3 383 293 384 
3 384 293 294 
3 384 294 385 
3 385 294 395 
3 385 395 386 
3 386 395 396 
3 386 396 397 
3 397 396 296 
3 397 296 387 
3 387 296 291 
3 303 292 405 
3 405 292 389 
3 341 398 399 
3 399 398 299 
3 399 299 391 
3 391 299 400 
3 391 400 393 
3 393 400 401 
3 393 401 402 
3 402 401 403 
3 402 403 404 
3 404 403 302 
3 404 302 405 
3 405 302 303 
3 456 406 458 
3 458 406 407 
3 458 407 516 
3 406 456 408 
3 408 456 483 
3 408 483 520 
3 520 483 409 
3 520 409 410 
3 410 409 482 
3 410 482 522 
3 522 482 411 
3 522 411 446 
3 446 411 479 
3 446 479 388 
3 388 479 478 
3 388 478 412 
3 412 476 388 
3 388 476 413 
3 388 413 473 
3 473 471 388 
3 388 471 417 
3 417 471 470 
3 417 470 414 
3 414 468 417 
3 417 468 415 
3 417 415 416 
3 416 465 417 
3 417 465 390 
3 417 390 394 
3 394 390 418 
3 418 390 392 
3 392 390 419 
3 419 390 420 
3 465 421 390 
3 390 421 422 
3 390 422 443 
3 421 463 422 
3 422 463 512 
3 512 463 461 
3 512 461 513 
3 513 461 460 
3 513 460 515 
3 515 460 423 
3 515 423 516 
3 516 423 458 
3 433 434 557 
3 557 434 424 
3 557 424 425 
3 425 424 426 
3 426 424 427 
3 427 424 559 
3 559 424 560 
3 560 424 428 
3 428 424 452 
3 428 452 562 
3 562 452 429 
3 562 429 563 
3 563 429 510 
3 563 510 430 
3 430 510 509 
3 430 509 564 
3 564 509 508 
3 564 508 431 
3 431 508 507 
3 431 507 566 
3 566 507 506 
3 566 506 432 
3 433 570 434 
3 434 570 569 
3 434 569 435 
3 435 436 434 
3 434 436 438 
3 434 438 437 
3 437 438 439 
3 437 439 525 
3 525 439 440 
3 525 440 527 
3 527 440 568 
3 527 568 441 
3 441 568 567 
3 441 567 530 
3 530 567 442 
3 530 442 432 
3 432 442 566 
3 525 523 437 
3 437 523 446 
3 446 523 522 
3 390 443 452 
3 452 443 429 
3 388 382 446 
3 446 382 444 
3 446 444 445 
3 445 447 446 
3 446 447 448 
3 449 450 437 
3 437 450 379 
3 437 379 451 
3 451 380 437 
3 437 380 434 
3 424 453 452 
3 452 453 372 
3 452 372 454 
3 454 374 452 
3 452 374 376 
3 505 456 455 
3 455 456 458 
3 455 458 457 
3 457 458 423 
3 457 423 459 
3 459 423 460 
3 459 460 486 
3 486 460 461 
3 486 461 462 
3 462 461 463 
3 462 463 488 
3 488 463 421 
3 488 421 464 
3 464 421 465 
3 464 465 466 
3 466 465 416 
3 466 416 491 
3 491 416 415 
3 491 415 467 
3 467 415 468 
3 467 468 469 
3 469 468 414 
3 469 414 493 
3 493 414 470 
3 493 470 472 
3 472 470 471 
3 472 471 496 
3 496 471 473 
3 496 473 474 
3 474 473 413 
3 474 413 475 
3 475 413 476 
3 475 476 499 
3 499 476 412 
3 499 412 477 
3 477 412 478 
3 477 478 502 
3 502 478 479 
3 502 479 480 
3 480 479 411 
3 480 411 481 
3 481 411 482 
3 481 482 503 
3 503 482 409 
3 503 409 504 
3 504 409 483 
3 504 483 505 
3 505 483 456 
3 484 505 629 
3 629 505 455 
3 629 455 628 
3 628 455 457 
3 628 457 637 
3 637 457 459 
3 637 459 485 
3 485 459 486 
3 485 486 638 
3 638 486 462 
3 638 462 487 
3 487 462 488 
3 487 488 639 
3 639 488 464 
3 639 464 489 
3 489 464 466 
3 489 466 490 
3 490 466 491 
3 490 491 492 
3 492 491 467 
3 492 467 636 
3 636 467 469 
3 636 469 494 
3 494 469 493 
3 494 493 630 
3 630 493 472 
3 630 472 495 
3 495 472 496 
3 495 496 632 
3 632 496 474 
3 632 474 497 
3 497 474 475 
3 497 475 635 
3 635 475 499 
3 635 499 498 
3 498 499 477 
3 498 477 500 
3 500 477 502 
3 500 502 501 
3 501 502 480 
3 501 480 634 
3 634 480 481 
3 634 481 633 
3 633 481 503 
3 633 503 631 
3 631 503 504 
3 631 504 484 
3 484 504 505 
3 531 432 533 
3 533 432 506 
3 533 506 534 
3 534 506 507 
3 534 507 535 
3 535 507 508 
3 535 508 537 
3 537 508 509 
3 537 509 538 
3 538 509 510 
3 538 510 541 
3 541 510 429 
3 541 429 511 
3 511 429 443 
3 511 443 543 
3 543 443 422 
3 543 422 544 
3 544 422 512 
3 544 512 545 
3 545 512 513 
3 545 513 514 
3 514 513 515 
3 514 515 546 
3 546 515 516 
3 546 516 548 
3 548 516 407 
3 548 407 517 
3 517 407 406 
3 517 406 518 
3 518 406 408 
3 518 408 519 
3 519 408 520 
3 519 520 521 
3 521 520 410 
3 521 410 551 
3 551 410 522 
3 551 522 553 
3 553 522 523 
3 553 523 524 
3 524 523 525 
3 524 525 526 
3 526 525 527 
3 526 527 528 
3 528 527 441 
3 528 441 529 
3 529 441 530 
3 529 530 531 
3 531 530 432 
3 532 531 617 
3 617 531 533 
3 617 533 623 
3 623 533 534 
3 623 534 624 
3 624 534 535 
3 624 535 536 
3 536 535 537 
3 536 537 627 
3 627 537 538 
3 627 538 539 
3 539 538 541 
3 539 541 540 
3 540 541 511 
3 540 511 542 
3 542 511 543 
3 542 543 626 
3 626 543 544 
3 626 544 625 
3 625 544 545 
3 625 545 622 
3 622 545 514 
3 622 514 616 
3 616 514 546 
3 616 546 618 
3 618 546 548 
3 618 548 547 
3 547 548 517 
3 547 517 619 
3 619 517 518 
3 619 518 549 
3 549 518 519 
3 549 519 620 
3 620 519 521 
3 620 521 550 
3 550 521 551 
3 550 551 552 
3 552 551 553 
3 552 553 554 
3 554 553 524 
3 554 524 621 
3 621 524 526 
3 621 526 555 
3 555 526 528 
3 555 528 556 
3 556 528 529 
3 556 529 532 
3 532 529 531 
3 603 433 573 
3 573 433 557 
3 573 557 574 
3 574 557 425 
3 574 425 575 
3 575 425 426 
3 575 426 576 
3 576 426 427 
3 576 427 558 
3 558 427 559 
3 558 559 578 
3 578 559 560 
3 578 560 580 
3 580 560 428 
3 580 428 561 
3 561 428 562 
3 561 562 581 
3 581 562 563 
3 581 563 583 
3 583 563 430 
3 583 430 585 
3 585 430 564 
3 585 564 587 
3 587 564 431 
3 587 431 565 
3 565 431 566 
3 565 566 589 
3 589 566 442 
3 589 442 591 
3 591 442 567 
3 591 567 593 
3 593 567 568 
3 593 568 594 
3 594 568 440 
3 594 440 595 
3 595 440 439 
3 595 439 596 
3 596 439 438 
3 596 438 597 
3 597 438 436 
3 597 436 599 
3 599 436 435 
3 599 435 601 
3 601 435 569 
3 601 569 602 
3 602 569 570 
3 602 570 603 
3 603 570 433 
3 571 603 572 
3 572 603 573 
3 572 573 604 
3 604 573 574 
3 604 574 611 
3 611 574 575 
3 611 575 577 
3 577 575 576 
3 577 576 613 
3 613 576 558 
3 613 558 614 
3 614 558 578 
3 614 578 579 
3 579 578 580 
3 579 580 615 
3 615 580 561 
3 615 561 612 
3 612 561 581 
3 612 581 582 
3 582 581 583 
3 582 583 584 
3 584 583 585 
3 584 585 586 
3 586 585 587 
3 586 587 605 
3 605 587 565 
3 605 565 588 
3 588 565 589 
3 588 589 590 
3 590 589 591 
3 590 591 607 
3 607 591 593 
3 607 593 592 
3 592 593 594 
3 592 594 609 
3 609 594 595 
3 609 595 610 
3 610 595 596 
3 610 596 608 
3 608 596 597 
3 608 597 598 
3 598 597 599 
3 598 599 600 
3 600 599 601 
3 600 601 606 
3 606 601 602 
3 606 602 571 
3 571 602 603 
3 604 586 572 
3 572 586 605 
3 572 605 571 
3 571 605 588 
3 571 588 606 
3 606 588 590 
3 606 590 600 
3 600 590 607 
3 600 607 598 
3 598 607 592 
3 598 592 608 
3 608 592 609 
3 608 609 610 
3 586 604 584 
3 584 604 611 
3 584 611 582 
3 582 611 577 
3 582 577 612 
3 612 577 613 
3 612 613 615 
3 615 613 614 
3 615 614 579 
3 623 616 617 
3 617 616 618 
3 617 618 532 
3 532 618 547 
3 532 547 556 
3 556 547 619 
3 556 619 555 
3 555 619 549 
3 555 549 621 
3 621 549 620 
3 621 620 554 
3 554 620 550 
3 554 550 552 
3 616 623 622 
3 622 623 624 
3 622 624 625 
3 625 624 536 
3 625 536 626 
3 626 536 627 
3 626 627 542 
3 542 627 539 
3 542 539 540 
3 628 494 629 
3 629 494 630 
3 629 630 484 
3 484 630 495 
3 484 495 631 
3 631 495 632 
3 631 632 633 
3 633 632 497 
3 633 497 634 
3 634 497 635 
3 634 635 501 
3 501 635 498 
3 501 498 500 
3 494 628 636 
3 636 628 637 
3 636 637 492 
3 492 637 485 
3 492 485 490 
3 490 485 638 
3 490 638 489 
3 489 638 487 
3 489 487 639 
3 291 305 387 
3 387 305 378 
