ply
format ascii 1.0
comment Created by Blender 2.76 (sub 0) - www.blender.org, source file: 'simple_cube.blend'
element vertex 30
property float x
property float y
property float z
property float nx
property float ny
property float nz
element face 12
property list uchar uint vertex_indices
end_header
0.019182 -0.019182 -0.019182 0.000000 -0.000000 -1.000000
-0.019182 -0.019182 -0.019182 0.000000 -0.000000 -1.000000
-0.019182 0.019182 -0.019182 0.000000 -0.000000 -1.000000
-0.019182 0.024884 0.058549 -0.000000 -0.666233 0.745744
-0.019182 -0.019182 0.019182 -0.000000 -0.666233 0.745744
0.019182 -0.019182 0.019182 -0.000000 -0.666233 0.745744
0.019182 0.019182 -0.019182 0.948213 -0.224602 -0.224601
0.039969 0.039200 0.048559 0.948213 -0.224602 -0.224601
0.019182 -0.019182 0.019182 0.948213 -0.224602 -0.224601
0.019182 -0.019182 0.019182 -0.000000 -1.000000 0.000000
-0.019182 -0.019182 0.019182 -0.000000 -1.000000 0.000000
-0.019182 -0.019182 -0.019182 -0.000000 -1.000000 0.000000
-0.019182 -0.019182 0.019182 -1.000000 0.000000 -0.000000
-0.019182 0.024884 0.058549 -1.000000 0.000000 -0.000000
-0.019182 0.019182 -0.019182 -1.000000 0.000000 -0.000000
0.019182 0.019182 -0.019182 0.000000 0.997320 -0.073166
-0.019182 0.019182 -0.019182 0.000000 0.997320 -0.073166
-0.019182 0.024884 0.058549 0.000000 0.997320 -0.073166
0.019182 0.019182 -0.019182 0.000000 0.000000 -1.000000
0.039969 0.039200 0.048559 0.261361 -0.506518 0.821663
-0.019182 0.024884 0.058549 0.261361 -0.506518 0.821663
0.019182 -0.019182 0.019182 0.261361 -0.506518 0.821663
0.019182 -0.019182 -0.019182 1.000000 0.000000 0.000000
0.019182 0.019182 -0.019182 1.000000 0.000000 0.000000
0.019182 -0.019182 0.019182 1.000000 0.000000 0.000000
0.019182 -0.019182 -0.019182 -0.000000 -1.000000 -0.000000
-0.019182 -0.019182 -0.019182 -1.000000 0.000000 -0.000000
0.039969 0.039200 0.048559 -0.262117 0.944370 -0.198646
0.019182 0.019182 -0.019182 -0.262117 0.944370 -0.198646
-0.019182 0.024884 0.058549 -0.262117 0.944370 -0.198646
3 0 1 2
3 3 4 5
3 6 7 8
3 9 10 11
3 12 13 14
3 15 16 17
3 18 0 2
3 19 20 21
3 22 23 24
3 25 9 11
3 26 12 14
3 27 28 29
