ply
format ascii 1.0
comment Created by Blender 2.76 (sub 0) - www.blender.org, source file: 'simple_cube.blend'
element vertex 24
property float x
property float y
property float z
property float nx
property float ny
property float nz
element face 6
property list uchar uint vertex_indices
end_header
0.019182 0.019182 -0.019182 0.000000 0.000000 -1.000000
0.019182 -0.019182 -0.019182 0.000000 0.000000 -1.000000
-0.019182 -0.019182 -0.019182 0.000000 0.000000 -1.000000
-0.019182 0.019182 -0.019182 0.000000 0.000000 -1.000000
0.039969 0.039200 0.048559 0.357532 -0.682832 0.637112
-0.019182 -0.002537 0.058549 0.357532 -0.682832 0.637112
-0.019182 -0.019182 0.019182 0.357532 -0.682832 0.637112
0.019182 -0.019182 0.019182 0.357532 -0.682832 0.637112
0.019182 0.019182 -0.019182 0.973894 -0.160516 -0.160516
0.039969 0.039200 0.048559 0.973894 -0.160516 -0.160516
0.019182 -0.019182 0.019182 0.973894 -0.160516 -0.160516
0.019182 -0.019182 -0.019182 0.973894 -0.160516 -0.160516
0.019182 -0.019182 -0.019182 -0.000000 -1.000000 -0.000000
0.019182 -0.019182 0.019182 -0.000000 -1.000000 -0.000000
-0.019182 -0.019182 0.019182 -0.000000 -1.000000 -0.000000
-0.019182 -0.019182 -0.019182 -0.000000 -1.000000 -0.000000
-0.019182 -0.019182 -0.019182 -1.000000 0.000000 -0.000000
-0.019182 -0.019182 0.019182 -1.000000 0.000000 -0.000000
-0.019182 -0.002537 0.058549 -1.000000 0.000000 -0.000000
-0.019182 0.019182 -0.019182 -1.000000 0.000000 -0.000000
0.039969 0.039200 0.048559 -0.386905 0.919752 0.066035
0.019182 0.019182 -0.019182 -0.386905 0.919752 0.066035
-0.019182 0.019182 -0.019182 -0.386905 0.919752 0.066035
-0.019182 -0.002537 0.058549 -0.386905 0.919752 0.066035
4 0 1 2 3
4 4 5 6 7
4 8 9 10 11
4 12 13 14 15
4 16 17 18 19
4 20 21 22 23
